<?xml version="1.0" encoding="UTF-8"?>
<!-- Created with Inkscape (http://www.inkscape.org/) -->
<svg width="48" height="48" version="1.1" viewBox="0 0 48 48" xmlns="http://www.w3.org/2000/svg">
 <path d="m23.76 1.2616c-0.10392 0-0.19616 0.00366-0.27412 0.00733-2.9409 0.13785-3.8148 0.24962-5.6522 0.72313-2.5215 0.64988-4.7599 1.6963-6.1871 2.8924-0.51456 0.43125-1.2817 1.218-1.5716 1.6117-0.47908 0.65082-0.845 1.477-1.0077 2.2754-0.29097 1.4277 0.10636 3.0603 1.0485 4.3084 1.0746 1.4236 3.1144 2.8617 5.219 3.6794 1.1934 0.46368 2.7667 0.92854 3.8014 1.1232 0.23028 0.04335 0.45008 0.10807 0.48846 0.1439l0.06984 0.06508 0.01576 2.4755c0.0085 1.3616 0 9.7586-0.01576 10.018l-0.03163 0.47138-0.28656 0.05886c-0.60901 0.12504-1.9057 0.51885-2.729 0.8288-1.4071 0.52984-1.71 0.67268-2.8952 1.3655-1.3327 0.77908-2.441 1.9251-3.0699 3.1748-0.25517 0.50699-0.387 0.91107-0.48139 1.4756l-0.07925 0.47391 0.02699 0.51519 0.02699 0.51516 0.14338 0.50443c0.07889 0.27746 0.23676 0.69615 0.35081 0.93041 0.26026 0.53453 0.84836 1.3227 1.3945 1.869 1.0882 1.0885 3.2813 2.3637 4.9861 2.899 1.4942 0.46919 3.5375 0.88692 5.0165 1.0255 0.23028 0.02162 0.97697 0.04201 1.6594 0.04555 2.7895 0.01416 5.3008-0.35975 7.0951-1.0563 0.32779-0.12727 0.67978-0.25751 0.7821-0.28938 0.30493-0.09501 1.2642-0.53785 1.8358-0.84754 0.92191-0.4994 1.9642-1.2524 2.4906-1.7994 0.12793-0.13291 0.29016-0.27198 0.36053-0.30898 0.07034-0.037 0.12793-0.08975 0.12793-0.11735 0-0.0276 0.12237-0.20221 0.27203-0.38821 0.50565-0.62859 0.99348-1.7343 1.125-2.5501l0.05837-0.36245-0.02638-0.56794-0.02638-0.56795-0.12238-0.41615c-0.22679-0.77077-0.55623-1.4404-0.99673-2.0259-0.4535-0.6028-1.5604-1.6175-2.2673-2.0785-0.41857-0.27294-1.454-0.80137-2.0649-1.0538-0.67882-0.2805-2.6525-0.94563-3.1366-1.057-0.25458-0.05861-0.55811-0.14055-0.67455-0.18218l-0.21169-0.07572-0.03761-0.92831c-0.0403-0.99626-0.0085-11.839 0.04091-12.01l0.03016-0.10343 0.16936-0.02918c1.9342-0.33513 3.7967-0.91189 5.1698-1.6009 2.1736-1.0907 3.8606-2.5071 4.6347-3.8914 0.20218-0.36157 0.54703-1.322 0.62082-1.729 0.07474-0.41249 0.06313-1.334-0.0232-1.8317-0.098068-0.5651-0.20697-0.88304-0.51034-1.49-0.42968-0.8595-0.80288-1.3451-1.5028-1.9554-1.0814-0.94279-1.7474-1.4149-2.5922-1.8377-2.5109-1.2567-4.9595-1.961-7.6278-2.1941-0.93602-0.081816-2.2319-0.13672-2.959-0.12959zm-0.13458 0.76249v2.3783l-0.50007 0.029185c-1.6373 0.095493-2.8316 0.29199-4.1222 0.6781-0.25558 0.076444-0.48965 0.139-0.52017 0.139-0.0304 0-0.11369-0.089021-0.18489-0.19769-0.20944-0.31983-0.47339-0.62604-1.0798-1.2531-0.31399-0.32466-0.5708-0.61153-0.5708-0.6374 0-0.11088 1.6232-0.55929 2.861-0.7903 1.0815-0.20182 1.8638-0.28277 3.0586-0.31636zm0.74432 0.014776 0.36053 0.00366c0.75804 0.00366 2.1495 0.088655 2.64 0.16118 1.3039 0.19293 3.1526 0.62126 3.651 0.84591l0.30166 0.13594-0.49264 0.5158c-0.27091 0.28367-0.67524 0.73791-0.89848 1.0093-0.22322 0.2714-0.43038 0.49231-0.46031 0.49091-0.0298 0-0.18003-0.042618-0.33354-0.091708-0.98254-0.31398-2.8911-0.63472-4.0588-0.68217l-0.70942-0.028819v-1.179zm7.7602 1.3738 0.17252 0.0624c0.28059 0.10148 1.8253 0.86443 2.2784 1.1254 0.47566 0.27394 0.96396 0.63441 1.6049 1.1846 0.44644 0.38324 0.58657 0.52294 0.55324 0.55152-0.0098 0.00855-0.37414 0.14723-0.80909 0.30798-0.43495 0.16079-1.1233 0.44628-1.5295 0.63447-0.40627 0.18823-0.75363 0.34216-0.77194 0.34216-0.01819 0-0.07327-0.044816-0.12199-0.099645-0.04872-0.05483-0.43376-0.35771-0.85553-0.67307-0.80131-0.5991-1.4578-0.98638-2.0475-1.2076-0.1919-0.072047-0.35699-0.13672-0.36692-0.14383-0.042862-0.030772 0.57958-0.7445 1.2099-1.3873zm-16.203 0.04506 0.62983 0.65344c0.53381 0.55385 1.1844 1.3205 1.1844 1.3957 0 0.012211-0.29307 0.1532-0.65125 0.31393-0.35822 0.16073-0.80556 0.38272-0.9941 0.49339-0.41085 0.24114-1.3612 0.95225-1.5853 1.1862-0.08816 0.092074-0.1719 0.16716-0.18608 0.16683-0.01416 0-0.35019-0.14787-0.74676-0.32803-0.67178-0.30511-1.2635-0.54827-2.0816-0.85542l-0.33719-0.12655 0.0607-0.086579c0.09549-0.13632 0.75636-0.71552 1.2457-1.0917 0.24537-0.18863 0.6745-0.46905 0.95366-0.62329 0.76653-0.42352 2.2048-1.0883 2.3657-1.0934zm7.7002 1.6833-0.01221 1.5774-0.01221 1.5774-0.51816 0.03236c-0.57362 0.035901-1.5066 0.17689-2.1023 0.31781-0.21311 0.050434-0.41198 0.091097-0.44194 0.090242-0.0298 0-0.14588-0.20488-0.25768-0.45356-0.2665-0.5929-0.58858-1.1653-1.0297-1.8302l-0.35871-0.54068 0.7493-0.21107c1.4321-0.40337 1.9104-0.48413 3.1341-0.52879zm0.74312 0.00366 1.6049 0.052752 0.67456 0.11943c0.6513 0.11528 2.1023 0.4437 2.3119 0.52325l0.10234 0.038832-0.37642 0.60466c-0.20702 0.33253-0.56765 0.96941-0.80147 1.4153-0.2338 0.4459-0.44541 0.81465-0.4702 0.81956-0.02479 0.00488-0.24902-0.03871-0.49825-0.096837-0.46688-0.10892-1.9544-0.30064-2.3334-0.30064h-0.21389v-1.588zm5.4359 0.96835 0.1779 0.06411c0.3783 0.13644 1.2229 0.56899 1.6868 0.86381 0.54171 0.34426 1.259 0.8891 1.259 0.95625 0 0.024179-0.17267 0.15532-0.38376 0.29168-0.40795 0.26357-1.3037 0.97068-1.9189 1.5147-0.20471 0.18101-0.38411 0.3295-0.39869 0.33018-0.01441 0-0.14017-0.0839-0.27913-0.1877-0.13894-0.1038-0.5875-0.35776-0.99688-0.56425-0.40941-0.20646-0.75192-0.38196-0.76114-0.39003-0.050427-0.044083 1.2499-2.395 1.5303-2.7668zm-11.659 0.04848 0.09941 0.13166c0.48429 0.64071 1.5584 2.5438 1.5103 2.6759-0.0085 0.022958-0.31292 0.19047-0.6768 0.37233-0.3639 0.18185-0.79304 0.43081-0.95364 0.55325-0.16064 0.12243-0.31481 0.23627-0.34264 0.25287-0.02797 0.01661-0.13248-0.05544-0.23262-0.16019-0.27792-0.2907-1.324-1.1158-1.9631-1.5483l-0.57158-0.38687 0.29246-0.26367c0.35463-0.31973 1.1468-0.85951 1.5667-1.0676 0.1691-0.08377 0.52436-0.24386 0.78946-0.35579zm19.131 0.78504c0.01599 0 0.0282 0 0.03627 0.00366 0.08755 0.033582 0.34682 0.4432 0.52543 0.83011 0.17328 0.37528 0.36417 1.0149 0.4442 1.4884 0.06265 0.37064 0.03676 1.2153-0.04164 1.3614l-0.0536 0.09989-0.61737 0.0061c-0.64441 0.0073-1.2144 0.05422-2.0326 0.16806-0.26668 0.03713-0.50948 0.06741-0.53949 0.06741h-0.05459l-0.03016-0.50006c-0.04787-0.79446-0.20306-1.2922-0.6135-1.9678-0.15391-0.25341-0.1751-0.36979-0.06716-0.36979 0.0232 0 0.34122-0.13795 0.70672-0.30649 0.99992-0.46113 2.0978-0.8728 2.3376-0.8816zm-26.679 0.071559h0.09439c0.14457 0 1.1466 0.37494 2.1111 0.78983 0.4772 0.2053 0.88698 0.37318 0.91057 0.37318 0.11918 0 0.08255 0.14438-0.15156 0.59693-0.34378 0.66462-0.4095 0.89937-0.44484 1.5895l-0.0298 0.58149-0.11808 0.0138c-0.06496 0.0073-0.12774 0.0037-0.13958-0.0073-0.05507-0.05422-1.3645-0.18222-2.1381-0.20906l-0.8606-0.0298-0.062762-0.2326c-0.03505-0.1299-0.063255-0.46878-0.063738-0.76757v-0.53496l0.11723-0.44193c0.14215-0.53538 0.3745-1.0934 0.60532-1.4538zm22.893 1.5384 0.18398 0.28919c0.10124 0.15904 0.25085 0.45658 0.33243 0.66128l0.14837 0.37214 0.0037 0.64927 0.0037 0.6492-0.1628 0.04298c-0.67411 0.17792-1.2509 0.42145-2.1214 0.8956-0.20728 0.11283-0.40156 0.20524-0.43175 0.20524-0.06338 0-0.07486-0.02955-0.1413-0.35987-0.06618-0.32944-0.24168-0.74976-0.42286-1.0131l-0.14954-0.21734 0.17963-0.18643c0.34481-0.35777 0.97639-0.86443 1.7752-1.4242zm-18.982 0.040786 0.21961 0.14894c1.1374 0.77115 2.2973 1.7006 2.4287 1.9461l0.03981 0.07437-0.15926 0.25403c-0.16825 0.26828-0.31941 0.71156-0.36815 1.0798-0.01599 0.1215-0.04371 0.2205-0.0613 0.21996-0.01759 0-0.15765-0.06863-0.31121-0.15115-0.57011-0.30659-1.2471-0.59626-1.7558-0.75108-0.28797-0.08768-0.55931-0.17335-0.60283-0.19041l-0.07913-0.03102-0.0315-0.20998c-0.01722-0.11552-0.02162-0.41643-0.0098-0.66873l0.02198-0.45875 0.20988-0.43403c0.1154-0.23873 0.26578-0.52268 0.33416-0.63102zm9.1151 0.40724v3.3169h-0.25347c-0.13942 0-0.50055 0.03212-0.80248 0.07119-0.30194 0.0392-0.58121 0.08096-0.62066 0.09305l-0.07181 0.02199-0.20234-0.68617c-0.15968-0.5415-0.59063-1.7566-0.81563-2.2998l-0.03248-0.078519 0.2456-0.07302c0.57912-0.17199 1.393-0.31244 1.9602-0.33844zm0.74432 0.014164h0.23016c0.68368 0 2.5145 0.34177 2.5145 0.46938 0 0.023816-0.10172 0.31006-0.22588 0.63599-0.12424 0.32596-0.34717 0.98508-0.49546 1.4648l-0.26957 0.87225-0.12089-0.0061c-0.06656-0.0037-0.22559-0.02198-0.35353-0.04116-0.12793-0.01917-0.46809-0.05067-0.75593-0.06985l-0.52336-0.03505v-1.6451zm-4.3105 0.6978c0.07522 0 0.22105 0.31243 0.51272 1.098 0.1977 0.53248 0.60205 1.8358 0.5765 1.8583-0.0061 0.0061-0.25253 0.11882-0.54678 0.25134-0.29424 0.13248-0.55817 0.25108-0.58651 0.26355-0.0282 0.01258-0.16167-0.17203-0.29628-0.41003-0.41872-0.74045-0.93078-1.4685-1.3387-1.9035l-0.15771-0.16816 0.43366-0.27374c0.45793-0.28913 1.2942-0.71571 1.4031-0.71571zm7.8915 0.0098c0.05666 0 0.1312 0.02479 0.24422 0.06973 0.36066 0.14312 1.478 0.83003 1.478 0.90869 0 0.021-0.123 0.20008-0.27332 0.39769-0.3358 0.4415-0.69636 0.99575-1.0648 1.6368-0.15383 0.26771-0.29776 0.49206-0.31982 0.49855-0.02198 0.0061-0.08194-0.02076-0.13312-0.0602-0.13053-0.10111-0.66359-0.36613-0.87221-0.43377-0.09598-0.03102-0.17448-0.06753-0.17448-0.08084 0-0.16176 0.67928-2.1968 0.88626-2.655 0.09012-0.1994 0.1348-0.27909 0.22923-0.28157zm-10.225 1.5492 0.17008 0.19064c0.32937 0.36915 1.2255 1.722 1.4061 2.1226l0.05715 0.12683-0.20288 0.22206c-0.11161 0.12215-0.21485 0.22757-0.22943 0.23423-0.01441 0.0061-0.12004-0.0839-0.23432-0.20124-0.23654-0.24281-0.89207-0.80145-1.073-0.9145l-0.12077-0.07547-0.08072-0.28747-0.0806-0.2874 0.03102-0.22624c0.01722-0.12441 0.10453-0.3787 0.19424-0.56513zm12.555 0.0232c0.0762 0 0.28565 0.51843 0.33235 0.82257l0.04884 0.31718-0.05568 0.26656-0.0558 0.2665-0.148 0.10502c-0.27925 0.19809-1.032 0.81781-1.1686 0.96211-0.0751 0.07937-0.14924 0.14429-0.16471 0.14429-0.03956 0-0.41971-0.39167-0.41971-0.43237 0-0.0569 0.60682-1.108 0.83811-1.4517 0.27297-0.40566 0.74454-1.0002 0.79329-1.0002zm7.6835 0.17118-0.03493 0.1099c-0.07424 0.23404-0.41389 0.82711-0.65452 1.143-0.42908 0.56321-1.1805 1.2407-2.0491 1.8472-0.20803 0.14529-0.40692 0.26368-0.44192 0.26316-0.03505 0-0.1579-0.04409-0.27302-0.09671-0.25391-0.11601-0.92464-0.2945-1.3838-0.36826-0.18543-0.0298-0.34682-0.06984-0.35862-0.0889-0.01221-0.01917 0.11015-0.13144 0.27102-0.24961 0.32419-0.23801 0.84478-0.76762 1.1343-1.1539 0.16248-0.21684 0.28138-0.43067 0.53896-0.96938l0.0541-0.1132 0.23251-0.0596c0.47501-0.12175 1.2343-0.20734 2.0871-0.23514zm-27.766 0.021c0.16641-0.0037 0.53894 0.01099 0.96192 0.03443 0.94502 0.05177 1.7364 0.1481 1.9809 0.24108l0.09953 0.03786 0.12475 0.32653c0.26452 0.69223 0.63574 1.1147 1.8114 2.0614l0.09806 0.07889-0.05275 0.05287c-0.02882 0.02918-0.26135 0.08207-0.51636 0.11772-0.25502 0.03566-0.64994 0.13037-0.87768 0.21063-0.22773 0.08022-0.46639 0.15523-0.53035 0.16672l-0.11625 0.021-0.4652-0.3342c-0.97053-0.69705-1.5342-1.2268-2.0512-1.9279-0.2738-0.3713-0.6126-1.0264-0.55866-1.0803 0.0037-0.0037 0.03651-0.0061 0.09195-0.0061zm3.9574 0.59875c0.01099 0 0.23656 0.07071 0.50045 0.15721 0.57452 0.18819 1.2835 0.51342 1.7416 0.79891l0.33428 0.20835 0.30337 0.40632c0.16684 0.22346 0.39896 0.49969 0.5158 0.61374 0.11686 0.11405 0.21252 0.22397 0.21252 0.24422 0 0.03676-0.14507 0.03749-0.47802 0.0037-0.21414-0.02235-0.88382-0.39548-1.5863-0.88397-0.54362-0.37798-1.5643-1.3387-1.5643-1.4723 0-0.04139 0.0085-0.07522 0.02039-0.07522zm19.611 0.0037c0.01306 0 0.02295 0.0049 0.02857 0.01099 0.05031 0.05031-0.2162 0.39296-0.59385 0.76331-0.4548 0.4461-1.4949 1.2367-1.9054 1.4484l-0.28687 0.14793-0.19114-0.0037c-0.10514-0.0037-0.22835-0.01783-0.27377-0.0359l-0.08255-0.0326 0.32427-0.46822c0.39174-0.56545 0.54255-0.706 1.138-1.0609 0.62082-0.36997 1.6434-0.79202 1.8428-0.76938zm-9.3968 0.96048 0.52336 0.02955c0.28785 0.01624 0.63325 0.04336 0.76758 0.0602l0.2442 0.0304-8.5e-5 0.14473c-3.6e-5 0.07962-0.03078 0.30165-0.06814 0.49354-0.03749 0.1919-0.09403 0.71809-0.12567 1.1693l-0.05763 0.82037-0.23475 0.0282c-0.12917 0.01539-0.41798 0.02858-0.64186 0.02858h-0.40704v-1.4027zm-0.74432 0.01416v2.7912l-0.50007-0.0073c-0.27505-0.0037-0.56502-0.01575-0.6443-0.02577l-0.1441-0.01819-0.02882-0.56988c-0.02918-0.5743-0.12741-1.3525-0.22305-1.7654-0.02858-0.12291-0.04116-0.23404-0.0282-0.24695 0.0508-0.0508 0.86763-0.15727 1.2081-0.15743zm-2.3261 0.3659 0.04762 0.12548c0.07229 0.19017 0.18499 1.2437 0.18499 1.7296v0.43059l-0.05813-0.0037c-0.08853-0.0061-0.79545-0.136-0.80755-0.1481-0.0061-0.0061-0.03468-0.18697-0.06423-0.40251-0.04372-0.31894-0.18867-0.87525-0.31154-1.1955l-0.02259-0.05898 0.41104-0.2057c0.22611-0.1132 0.45818-0.22028 0.5157-0.23816zm5.4037 0.0061c0.0547 0 0.56941 0.26032 0.78948 0.39923l0.17228 0.1088-0.11332 0.40896c-0.0624 0.22487-0.12874 0.5868-0.14739 0.80427l-0.03383 0.39543-0.34892 0.07694c-0.1919 0.04226-0.396 0.07901-0.45357 0.08145l-0.10465 0.0049v-0.33728c0-0.73825 0.1494-1.9422 0.2396-1.9422zm-7.0551 1.0221 0.08182 0.18364c0.04494 0.10099 0.09513 0.31057 0.11125 0.46584l0.02955 0.28229h-0.14347c-0.17058 0-0.16894 0.0037-0.24378-0.33572l-0.05886-0.26596 0.11173-0.165zm8.6445 0.0304 0.13204 0.15819c0.15285 0.18311 0.15815 0.23105 0.05788 0.52543l-0.07424 0.21763h-0.28376l0.0276-0.29077c0.01539-0.15991 0.053-0.36265 0.08402-0.45058zm3.4834 0.3342 0.71606 0.12373c0.74404 0.12851 1.232 0.26602 1.3199 0.37198l0.05129 0.06167-0.15291 0.0933c-0.27879 0.17021-1.4463 0.66852-2.0601 0.87931-0.66407 0.22802-2.0565 0.62019-2.6026 0.73296-0.40095 0.08279-0.49101 0.08817-0.49101 0.02955 0-0.0232 0.08523-0.26233 0.18945-0.53124l0.18954-0.48899 0.14773-0.06826c0.24585-0.11357 1.3817-0.575 1.7357-0.70509 0.18258-0.06704 0.47261-0.2068 0.64448-0.31044zm-15.652 0.0085 0.89643 0.39803c0.49297 0.21893 1.1184 0.48207 1.3898 0.58477 0.27145 0.1027 0.53736 0.21512 0.59107 0.2497l0.09756 0.06277 0.14664 0.4422c0.0806 0.24317 0.14663 0.47505 0.14663 0.51526 0 0.0403-0.02601 0.07094-0.05813 0.06814-0.43954-0.03761-3.0347-0.80963-3.8495-1.1451-0.50022-0.20592-1.3026-0.61798-1.3026-0.66899 0-0.0679 1.0779-0.37016 1.6339-0.45811zm3.7643 1.3807 0.20554 0.03016c0.11308 0.01661 0.38258 0.06216 0.59902 0.10111 0.62784 0.11296 1.5057 0.20656 2.2465 0.2395l0.68616 0.0304v1.009l-0.3605-0.0085c-0.47489-0.01099-0.67994-0.0254-1.5933-0.11161-0.99381-0.09378-1.3995-0.16468-1.4456-0.25241-0.02015-0.03823-0.09098-0.25301-0.15772-0.4772-0.06668-0.22421-0.13458-0.44206-0.15075-0.48419zm8.1995 0.0049-0.16744 0.5049c-0.09208 0.27771-0.18523 0.52769-0.20696 0.5555-0.06228 0.07974-1.1727 0.22266-2.3202 0.29876-0.37098 0.02454-0.75305 0.04506-0.849 0.04542h-0.17444v-1.0097l0.63964-0.02797c0.53177-0.0232 2.3831-0.23806 2.9289-0.33981zm-0.50816 1.8596v0.39407c0 0.21669-0.01381 0.52557-0.03078 0.68637l-0.0304 0.29227-0.33508 0.15483c-0.18433 0.08512-0.42179 0.16879-0.52769 0.1857l-0.19256 0.03077v-1.5786l0.43032-0.05557c0.23668-0.0304 0.48788-0.06777 0.55826-0.08267zm-7.1753 0.0304 0.50572 0.06583c0.27815 0.03627 0.5319 0.07314 0.56389 0.08194l0.05813 0.01599v1.5381l-0.05813-0.0037c-0.14981-0.0085-0.51384-0.13216-0.7504-0.25577l-0.26123-0.13656-9.8e-5 -0.37688c-6.1e-5 -0.20734-0.01306-0.50134-0.02882-0.65327zm1.8721 0.21325h0.38862c0.21371 0 0.51725 0.01356 0.67452 0.0298l0.28593 0.0298v1.615l-0.54658-0.0073c-0.30066-0.0037-0.60418-0.01563-0.67455-0.02637l-0.12794-0.01942v-0.81101zm3.1937 0h0.24877v1.5761l-0.05202 0.03212c-0.02858 0.01759-0.3321 0.04274-0.67452 0.0558l-0.62257 0.02382v-1.6275l0.42578-0.03016c0.2342-0.01661 0.53775-0.03016 0.67452-0.03016zm2.0156 1.9187c0.01636 0 0.0276 0 0.03212 0.0049 0.01856 0.01856 0.04237 0.4616 0.05337 0.9849l0.0073 3.0519c-0.27073 0.09012-0.72152 0.2363-1.1157 0.34572v-4.0598l0.26748-0.07009c0.14714-0.03859 0.37688-0.11857 0.51066-0.17802 0.10026-0.04457 0.19538-0.07461 0.2444-0.07901zm-7.0236 0.03517h0.08658c0.04762 0 0.22033 0.0602 0.3838 0.13391 0.16345 0.07376 0.36523 0.14865 0.44837 0.16658l0.15119 0.03248v1.0895h9.8e-5c0 0.20408 0 1.6868-0.0037 2.932-0.36899-0.10221-0.78767-0.23718-1.0672-0.32999l-8.5e-5 -3.0127zm1.8143 0.40513 0.31402 0.0298c0.17272 0.01636 0.47624 0.0298 0.67455 0.0298h0.3605v4.1758c-0.45302-0.0138-0.9048-0.05349-1.3491-0.12419v-2.9923zm3.4425 0.01099v4.0992c-0.44216 0.07083-0.89187 0.111-1.3429 0.1253l0.0049-3.0412 0.01258-1.1574 0.66291-0.01282zm1.8619 4.3401 0.01099 4.2205-0.13782 0.12874c-0.07584 0.07083-0.26979 0.19686-0.43105 0.28003-0.16123 0.08317-0.35306 0.15118-0.42623 0.15118h-0.13301v-4.4482c0.37528-0.09451 0.79956-0.22749 1.1176-0.33218zm-7.1181 0.01881c0.31498 0.10319 0.7129 0.22701 1.0667 0.31573-0.0037 2.2355-0.0049 4.4917-0.0085 4.4914-0.04701-0.0037-0.78643-0.32917-0.90687-0.39952l-0.15093-0.08805zm5.2563 0.45882v4.4779l-0.29073 0.02796c-0.15992 0.01539-0.46382 0.0414-0.67536 0.05813l-0.3846 0.03016 0.0073-4.4767c0.44826-0.01331 0.89792-0.05067 1.3439-0.11723zm-3.4425 0.0037c0.44782 0.06631 0.89909 0.10319 1.3491 0.11601v4.4642l-0.12793-0.0085c-0.27943-0.01783-0.56215-0.03859-0.88387-0.06508l-0.33727-0.02797zm5.2452 4.6777 0.02858 0.17228c0.01563 0.09476 0.02858 0.60473 0.02895 1.1333v0.96111l-0.30719 0.194c-0.16894 0.10673-0.39144 0.22371-0.49435 0.26002-0.10294 0.03639-0.21587 0.06606-0.25106 0.06606h-0.06386v-2.3555l0.2675-0.08389c0.14711-0.04616 0.38527-0.14319 0.52923-0.21563zm-7.0304 0.04555c0.0098-0.01099 0.17002 0.04494 0.35526 0.12421 0.18525 0.07914 0.41531 0.16826 0.51124 0.19786l0.17445 0.05385-0.0061 0.72906c-0.0037 0.401-0.0188 0.95345-0.03493 1.2277l-0.02895 0.49863-0.37342-0.15071c-0.20532-0.08292-0.44307-0.20042-0.52832-0.26114l-0.15498-0.11039 0.03358-1.1446c0.01856-0.62955 0.04189-1.1535 0.05202-1.1645zm1.8001 0.50189 0.46938 0.0282c0.25817 0.01539 0.55845 0.03908 0.66718 0.05251l0.19769 0.02442v2.5064l-0.45356-0.0061c-0.45431-0.0061-0.87165-0.04737-0.9145-0.09024-0.01258-0.01258-0.0098-0.58356 0.0049-1.2689zm3.4096 0.02222c0.0037 0.0037 0.01759 0.55469 0.03248 1.2236l0.02735 1.2162-0.19526 0.04824c-0.10734 0.02662-0.42068 0.06313-0.69614 0.08108l-0.50083 0.03273 0.01221-1.274 0.01258-1.274 0.65131-0.03078c0.35821-0.01697 0.65354-0.02735 0.65644-0.0232zm-6.5814 1.1979c0.07754-0.0061 0.02442 0.08633-0.19251 0.35453-0.23631 0.29205-0.80556 0.76604-1.2378 1.0307l-0.23778 0.14554-0.9485-0.0073c-1.345-0.01099-1.5182-0.04237-1.175-0.21531 0.38433-0.19375 2.4697-0.95116 3.0538-1.1091 0.33834-0.09146 0.65182-0.17714 0.69661-0.19027 0.01636-0.0049 0.03016-0.0073 0.04116-0.0085zm9.7524 0.0037c0.01221 1.1e-4 0.02699 0.0037 0.04531 0.0073 1.4691 0.38923 3.8527 1.2504 3.9064 1.4113 0.0098 0.02797-0.10477 0.06106-0.2715 0.07852-0.15815 0.01661-0.66887 0.03016-1.1349 0.03016h-0.84734l-0.23734-0.12793c-0.30005-0.16172-0.80451-0.58222-1.1947-0.99583-0.26803-0.28413-0.34859-0.40425-0.26595-0.40368zm-9.2974 0.89943v0.11625c0.0037 0.22081-0.22808 1.2747-0.372 1.7066h-9.8e-5c-0.07937 0.23824-0.15375 0.43328-0.16537 0.43328-0.01099 0-0.0668-0.09941-0.12255-0.22097l-0.10136-0.22096v-0.60478l0.22117-0.42464c0.12163-0.23351 0.29271-0.50566 0.38025-0.60476zm8.9033 0.09525c0.0591-0.01282 0.17031 0.16496 0.37789 0.57968l0.30574 0.61064v0.26904c0 0.14794-0.02382 0.34016-0.05275 0.42712-0.02882 0.08695-0.07937 0.18692-0.11198 0.22206l-0.05947 0.06399-0.16202-0.50592c-0.20115-0.62812-0.36959-1.3672-0.34978-1.5351 0.0098-0.08035 0.02577-0.12567 0.05239-0.13153zm-0.84305 0.37915c0.02199-0.0037 0.03603-0.0037 0.04054 0 0.01795 0.01979 0.08731 0.31278 0.15427 0.65109 0.06691 0.33829 0.2055 0.83538 0.30792 1.1047 0.10246 0.26936 0.19157 0.5571 0.19807 0.6394l0.01221 0.14964-0.25586 0.17317c-0.14074 0.09525-0.40392 0.24748-0.58477 0.33838-0.18088 0.09085-0.39078 0.17753-0.46648 0.1927l-0.13764 0.0276-0.08011-0.38754c-0.10867-0.52592-0.20623-1.3003-0.24532-1.9485l-0.03236-0.53755 0.19622-0.05886c0.10795-0.03236 0.355-0.13114 0.54896-0.21955 0.14549-0.06631 0.27931-0.11442 0.34472-0.12602zm-7.3607 0.01221 0.31502 0.15827c0.17326 0.08707 0.43546 0.19594 0.58259 0.24214l0.26746 0.08402v0.15656c0 0.2567-0.13684 1.391-0.23994 1.9896-0.05287 0.30706-0.10954 0.5817-0.12586 0.61048l-0.02955 0.05227-0.19124-0.05715c-0.24342-0.07266-1.232-0.58882-1.2589-0.65726-0.01099-0.0282 0.08438-0.36333 0.21209-0.74431 0.12774-0.381 0.27684-0.92298 0.33143-1.2044 0.05458-0.28142 0.10783-0.53846 0.11808-0.57105zm13.504 0.54524 0.15119 0.08145c0.24961 0.13442 1.3092 0.93953 1.518 1.1533 0.51055 0.52302 1.0562 1.2843 1.275 1.7792l0.11393 0.25767-0.22043-0.0049c-0.30171-0.0061-1.1595-0.147-1.9353-0.31729l-0.64492-0.14158-0.58787-0.23668c-0.73669-0.29663-0.78009-0.32551-0.85236-0.56661-0.03248-0.10844-0.2541-0.49923-0.49244-0.86833-0.23834-0.36909-0.42342-0.69717-0.41122-0.72897l0.02222-0.05776 0.41022-0.03151c0.61434-0.04701 0.97981-0.10673 1.3344-0.21804zm-19.498 0.0037 0.14893 0.02699c0.08194 0.01477 0.45252 0.08023 0.82354 0.14529 0.95802 0.16797 1.163 0.21298 1.163 0.25522 0 0.02039-0.16734 0.26488-0.37179 0.54324-0.20444 0.27837-0.4648 0.69611-0.57858 0.9283-0.11381 0.23222-0.23428 0.44442-0.26784 0.47149-0.10343 0.0834-1.0898 0.42857-1.5647 0.54767-0.24761 0.06216-0.74734 0.16638-1.1105 0.2317-0.36316 0.06533-0.81921 0.13214-1.0134 0.14855l-0.35296 0.0298 0.04506-0.11869c0.19355-0.50909 0.65552-1.224 1.1041-1.7085 0.39709-0.42891 1.1703-1.0344 1.7518-1.3717zm11.494 0.07119c0.01356-2.5e-5 0.02222 0 0.02515 0.0037 0.01099 0.01099 0.04994 0.33115 0.0861 0.71096 0.08035 0.84422 0.17553 1.5478 0.28003 2.0687l0.02442 0.12199-0.0839 0.03236c-0.04616 0.01783-0.28017 0.07291-0.52017 0.12237-0.24 0.04957-0.61158 0.10343-0.82574 0.11992l-0.38931 0.0298v-3.0699l0.48689-0.0298c0.26782-0.01636 0.58462-0.05165 0.70399-0.0784 0.08951-0.02002 0.17204-0.03212 0.21242-0.03223zm-3.6124 0.05654 0.09268 0.01099c0.05092 0.0061 0.38059 0.02479 0.7324 0.04213l0.63964 0.03138v3.0559l-0.4303-0.0049c-0.23665-0.0037-0.47217-0.01379-0.52333-0.02442-0.05117-0.0098-0.27846-0.05287-0.50509-0.09428l-0.41205-0.07547 0.02479-0.14447c0.01356-0.07937 0.07877-0.43742 0.14499-0.79563 0.06618-0.35821 0.14646-0.95483 0.17837-1.3258zm8.0705 0.16283h0.2654l0.41577 0.43032c0.3654 0.37819 0.71445 0.81411 0.71445 0.89224 0 0.06301-0.10026 0.01356-0.35546-0.17492-0.32048-0.23678-1.0402-0.98468-1.0402-1.0809zm-12.514 0.04652v0.08207c0 0.10941-0.50067 0.65927-0.82981 0.91142-0.30111 0.23069-0.47274 0.32995-0.47274 0.27337 0-0.10954 0.31977-0.5159 0.6839-0.86923l0.40931-0.39713h0.10465zm12.095 0.79083c0.01502 0 0.13116 0.10661 0.25815 0.23685 0.27648 0.28377 1.1141 0.90152 1.6155 1.1915 0.19873 0.11491 0.38454 0.25227 0.41296 0.30534l0.05165 0.09659-0.02357 0.42233-0.02357 0.4223-0.09806 0.2443c-0.05397 0.13444-0.18387 0.38041-0.28885 0.54662-0.10502 0.16622-0.20796 0.30228-0.22877 0.30228-0.02076 0-0.31245-0.2857-0.64808-0.6349l-0.61022-0.63504-0.42066-0.62266c-0.23141-0.34249-0.44986-0.69235-0.48548-0.77756l-0.06472-0.15502 0.20618-0.31383c0.11344-0.17262 0.23185-0.38481 0.26319-0.47153 0.03138-0.0867 0.06936-0.15765 0.08438-0.15765zm-11.632 0.07657c0.03285-0.0037 0.04884 0.02577 0.04884 0.08157 0 0.03285 0.10661 0.23568 0.23688 0.45084l0.23677 0.39125-0.12419 0.24033c-0.18211 0.35229-0.53378 0.87126-0.87743 1.2948-0.16611 0.20468-0.51038 0.57848-0.76513 0.83069l-0.4632 0.45867-0.15599-0.22607c-0.08585-0.12429-0.22406-0.39343-0.3073-0.59813l-0.15137-0.37214v-0.90141l0.25915-0.15411c0.14253-0.08475 0.5358-0.33479 0.87385-0.55568l0.61467-0.4016 0.26596-0.2873c0.15353-0.16584 0.25533-0.24897 0.31008-0.2517zm10.526 1.4003 0.03956 0.06399c0.02199 0.03516 0.11637 0.20386 0.21007 0.37473 0.2394 0.43641 0.85504 1.2167 1.4948 1.8945l0.54462 0.57694-0.23106 0.20535c-0.35666 0.31697-0.92236 0.67768-1.5103 0.96299-0.29425 0.14276-0.60161 0.27242-0.683 0.28803l-0.148 0.0282-0.16865-0.33474c-0.33609-0.66751-1.1402-2.8595-1.1402-3.1082v-0.09036l0.35796-0.15609c0.19688-0.08585 0.55516-0.27978 0.79611-0.43086zm-9.4217 0.01221 0.08853 0.10001c0.15919 0.17994 0.6232 0.45061 1.0675 0.62276l0.43585 0.16892-0.02662 0.14707c-0.09341 0.51122-0.73709 2.2683-1.0833 2.9569-0.10416 0.20724-0.205 0.37614-0.22388 0.37545-0.01881 0-0.22276-0.07999-0.45303-0.17592-0.705-0.29372-1.6957-0.89093-1.9732-1.1895l-0.11235-0.12089 0.46184-0.47725c0.62918-0.65021 0.98465-1.106 1.3685-1.7547 0.17855-0.30172 0.35287-0.57208 0.38742-0.60076zm13.551 0.55799h0.05813c0.032 0 0.26254 0.07302 0.51235 0.16236 0.87109 0.31134 2.0805 0.58392 3.2098 0.7235l0.45413 0.05617 0.03431 0.12211c0.01881 0.06716 0.0337 0.3524 0.03297 0.63384v0.51171l-0.08365 0.27912c-0.23978 0.80054-0.59997 1.5048-0.96938 1.8957-0.09073 0.09586-0.18323 0.17416-0.2058 0.17382-0.07914 0-0.75055-0.31082-1.2055-0.55606-0.87062-0.46935-2.0148-1.2031-2.4133-1.5477l-0.18188-0.15718 0.20795-0.34628c0.36982-0.6157 0.54911-1.1642 0.55052-1.6836zm-17.753 0.04664 0.03688 0.05813c0.02039 0.032 0.03725 0.16146 0.03761 0.28775 0.0037 0.47572 0.23578 1.1172 0.60432 1.6544l0.14364 0.20934-0.18162 0.16384c-0.56269 0.50772-1.8903 1.332-2.8683 1.7806-0.35822 0.16433-0.69743 0.31322-0.75377 0.33093l-0.10246 0.03211-0.16482-0.22341c-0.62824-0.85167-1.0688-2.2759-0.96838-3.1308l0.03553-0.30238 0.16282-0.01099c0.81715-0.05544 2.8108-0.44271 3.5348-0.68655zm11.305 0.51307 0.03566 0.0574c0.01942 0.0315 0.05593 0.15168 0.08072 0.26694 0.10954 0.50917 0.70722 2.1067 1.0235 2.7358 0.10477 0.2083 0.19045 0.39713 0.19045 0.4196 0 0.05434-1.3167 0.3132-2.0455 0.40216-0.31906 0.03896-0.74295 0.07083-0.94205 0.07083h-0.36187v-3.6605l0.54662-0.0574c0.30061-0.0315 0.75484-0.09733 1.0094-0.14606zm-4.7734 0.04542c0.01819 0 0.24234 0.04347 0.4982 0.09611 0.25585 0.05251 0.70069 0.10783 0.98853 0.12275l0.52333 0.02735v3.6611l-0.3605-0.0073c-0.59196-0.01233-1.7337-0.16975-2.3226-0.32037-0.19552-0.04994-0.3888-0.09122-0.42948-0.09158-0.04066 0-0.10209-0.01856-0.13647-0.0403l-0.0624-0.03956 0.1708-0.36679c0.3627-0.77893 0.72894-1.7693 0.99999-2.7043 0.05385-0.18553 0.11259-0.33708 0.13066-0.33694zm9.9421 2.1971 0.1858 0.16236c0.22984 0.20073 1.1511 0.85775 1.5582 1.1114 0.1663 0.10355 0.69614 0.39286 1.1774 0.64282l0.87513 0.45447-0.08425 0.09415c-0.13634 0.15231-1.132 0.94042-1.4101 1.1161-0.28074 0.1774-1.6861 0.8876-2.1785 1.1009-0.17072 0.07401-0.35523 0.14793-0.41016 0.16448l-0.09976 0.03016-0.37761-0.41168c-0.85156-0.92857-2.0504-2.6421-1.9271-2.7545 0.02137-0.01942 0.21685-0.11442 0.43434-0.21096 0.74419-0.33059 1.527-0.82451 1.9987-1.2609zm-15.138 0.03603 0.27102 0.22559c0.56265 0.46826 1.6391 1.1023 2.2665 1.3349 0.12406 0.04604 0.23353 0.08963 0.2433 0.09708 0.0098 0.0073-0.22197 0.37522-0.51498 0.81746-0.54214 0.81823-1.053 1.4841-1.5717 2.0485l-0.28856 0.31392h-0.10062c-0.285-0.0037-2.5061-1.2069-3.2109-1.7409-0.53208-0.40312-0.9438-0.75644-0.91324-0.78374 0.01258-0.01099 0.46251-0.24279 0.99981-0.51454 1.1141-0.56351 1.7916-0.97611 2.3976-1.4604zm3.5205 1.9068c0.01881 0 0.26417 0.05117 0.54542 0.11381 0.69435 0.15466 2.073 0.35109 2.4682 0.3518 0.17752 0 0.40123 0.01356 0.49719 0.02918l0.17444 0.02882v3.6629l-0.73267-0.0049c-0.7426-0.0049-1.2773-0.05972-2.2446-0.23006-0.73477-0.1294-1.918-0.39269-2.5461-0.56657l-0.5225-0.14466 0.03736-0.05031c0.02076-0.0276 0.26725-0.33285 0.54816-0.67826 0.28091-0.3454 0.60478-0.7536 0.71968-0.90711 0.23923-0.31958 0.83001-1.2289 0.9445-1.4537 0.04226-0.08317 0.0922-0.15118 0.11088-0.15118zm8.1628 0.01282 0.07547 0.13892c0.38233 0.7031 1.3111 2.0106 1.8921 2.6637 0.19061 0.21424 0.34663 0.40039 0.34663 0.41366 0 0.01331-0.17272 0.07657-0.38379 0.14076-1.0318 0.31353-2.6924 0.62955-3.9193 0.74587v7.3e-5c-0.40936 0.03883-0.96961 0.07058-1.245 0.07071h-0.50063l0.01221-1.8491 0.01221-1.8492 0.55826-0.03102c0.67196-0.03749 1.7894-0.18223 2.576-0.33364z" fill="#1a1a1a" stroke="#000" stroke-width=".16608"/>
</svg>
